<svg viewBox="0 0 33 33" fill="none" xmlns="http://www.w3.org/2000/svg">
<path d="M29.0714 0.400024H3.92857C3.01926 0.400024 2.14719 0.761248 1.50421 1.40423C0.861223 2.04721 0.5 2.91928 0.5 3.8286L0.5 28.9715C0.5 29.8808 0.861223 30.7528 1.50421 31.3958C2.14719 32.0388 3.01926 32.4 3.92857 32.4H13.7321V21.5207H9.23214V16.4H13.7321V12.4972C13.7321 8.05788 16.375 5.60574 20.4229 5.60574C22.3614 5.60574 24.3886 5.95145 24.3886 5.95145V10.3086H22.155C19.9543 10.3086 19.2679 11.6743 19.2679 13.075V16.4H24.1807L23.395 21.5207H19.2679V32.4H29.0714C29.9807 32.4 30.8528 32.0388 31.4958 31.3958C32.1388 30.7528 32.5 29.8808 32.5 28.9715V3.8286C32.5 2.91928 32.1388 2.04721 31.4958 1.40423C30.8528 0.761248 29.9807 0.400024 29.0714 0.400024Z" fill="white"/>
</svg>
