<?xml version="1.0" standalone="no"?>
<!DOCTYPE svg PUBLIC "-//W3C//DTD SVG 20010904//EN"
 "http://www.w3.org/TR/2001/REC-SVG-20010904/DTD/svg10.dtd">
<svg version="1.0" xmlns="http://www.w3.org/2000/svg"
 width="700.000000pt" height="700.000000pt" viewBox="0 0 700.000000 700.000000"
 preserveAspectRatio="xMidYMid meet">
<metadata>
Created by potrace 1.14, written by Peter Selinger 2001-2017
</metadata>
<g transform="translate(0.000000,700.000000) scale(0.100000,-0.100000)"
fill="#000000" stroke="none">
<path d="M0 6500 l0 -500 1693 -1 c1816 0 1704 3 1537 -45 -438 -124 -862
-322 -1195 -557 -126 -89 -213 -157 -344 -272 -113 -97 -309 -303 -426 -446
-17 -22 -183 -267 -212 -314 -63 -103 -273 -502 -273 -519 0 -2 -16 -39 -36
-83 -19 -43 -45 -100 -56 -128 -12 -27 -27 -63 -34 -80 -18 -44 -83 -212 -104
-270 -45 -123 -147 -423 -153 -447 l-7 -27 207 -1 c348 -2 816 -13 1043 -25
52 -3 142 -7 200 -10 160 -8 384 -23 455 -30 28 -2 86 -7 130 -10 76 -6 104
-9 193 -20 20 -2 62 -7 92 -10 30 -2 66 -7 80 -9 14 -3 48 -7 75 -11 56 -6 72
-9 165 -24 88 -15 117 -20 170 -32 25 -6 56 -13 70 -15 88 -14 274 -81 417
-149 176 -84 285 -146 475 -271 369 -243 616 -492 734 -739 37 -78 74 -190 74
-224 0 -8 -456 -11 -1668 -11 l-1668 0 -121 -127 c-131 -138 -179 -188 -342
-359 -95 -98 -385 -402 -515 -538 -26 -28 -80 -84 -119 -123 l-70 -73 1963 0
1962 0 82 67 c44 37 83 70 86 73 3 3 25 22 50 42 25 20 59 49 75 63 17 15 59
52 95 83 225 196 463 430 674 662 198 218 395 499 496 708 34 70 65 134 69
142 16 31 62 199 75 273 7 42 12 123 11 179 -8 333 -147 584 -485 878 -41 36
-77 67 -80 70 -3 3 -41 32 -85 66 -243 184 -554 346 -860 451 -86 29 -319 98
-365 108 -8 2 -82 17 -165 34 -154 30 -162 32 -301 51 -44 6 -89 12 -100 14
-10 2 -62 7 -114 11 -52 4 -102 9 -112 10 -14 3 -110 9 -298 20 -57 3 -311 13
-510 20 -63 2 -249 5 -412 6 -164 1 -298 6 -298 10 0 4 25 48 55 96 61 99 131
216 265 443 168 286 339 442 549 504 42 12 85 15 185 12 72 -3 142 -7 156 -10
13 -3 42 -8 65 -11 48 -7 234 -52 290 -70 22 -7 78 -25 125 -40 93 -29 258
-89 305 -110 17 -7 64 -27 105 -43 278 -111 751 -348 1185 -592 105 -59 200
-113 213 -121 26 -16 24 -17 417 395 219 230 246 258 440 460 314 328 316 330
302 342 -6 6 -86 55 -177 109 -91 54 -182 108 -202 121 -21 13 -40 24 -43 24
-3 0 -22 11 -43 24 -20 12 -82 47 -137 76 -55 29 -104 56 -110 61 -10 7 -476
240 -545 272 -33 15 24 16 822 16 l857 1 -2 498 -2 497 -3497 2 -3498 2 0
-499z"/>
</g>
</svg>
