<?xml version="1.0" encoding="UTF-8"?>
<svg width="2.9402mm" height="2.8109mm" version="1.1" viewBox="0 0 2.9402 2.8109" xmlns="http://www.w3.org/2000/svg"><style>
    path { fill: #000000; }
    @media (prefers-color-scheme: dark) {
      path { fill: #ffffff; }
    }
  </style><g transform="translate(-34.317 -88.933)"><path d="m36.406 91.254q-0.02722-0.16334-0.24502-0.32669-0.17696-0.12931-0.36752-0.20418-0.27905-0.10209-1.3136-0.1089 0.05445-0.16334 0.1157-0.30627 0.14973-0.34711 0.31988-0.51726 0.32669-0.3403 0.83033-0.456h-1.4293v-0.40155h2.9402v0.40155h-0.72144q0.26543 0.1157 0.55129 0.28585l-0.48323 0.48323q-0.73505-0.40836-1.0617-0.40836-0.12931 0-0.25182 0.15654-0.08167 0.13612-0.17015 0.27224 0.61935 0 0.87117 0.04764 0.47642 0.08167 0.76227 0.36752 0.12931 0.12931 0.12931 0.29266 0 0.35391-0.72144 0.912h-1.6471l0.49003-0.49003z" stroke-width=".26458"/></g></svg>
