<?xml version="1.0" encoding="UTF-8"?>
<svg width="18.546mm" height="4.3763mm" version="1.1" viewBox="0 0 18.546 4.3763" xmlns="http://www.w3.org/2000/svg"><g transform="translate(-31.725 -85.189)"><path d="m33.814 88.299q-0.02722-0.16334-0.24502-0.32669-0.17696-0.12931-0.36752-0.20418-0.27905-0.10209-1.3136-0.1089 0.05445-0.16334 0.1157-0.30627 0.14973-0.34711 0.31988-0.51726 0.32669-0.3403 0.83033-0.456h-1.4293v-0.40155h2.9402v0.40155h-0.72144q0.26543 0.1157 0.55129 0.28585l-0.48323 0.48323q-0.73505-0.40836-1.0617-0.40836-0.12931 0-0.25182 0.15654-0.08167 0.13612-0.17015 0.27224 0.61935 0 0.87117 0.04764 0.47642 0.08167 0.76227 0.36752 0.12931 0.12931 0.12931 0.29266 0 0.35391-0.72144 0.912h-1.6471l0.49003-0.49003zm3.0763 0.68741h-0.47642v-1.8716h-1.1162q-0.01361 0.21099-0.01361 0.42878 0 0.61934 0.12251 0.71463 0.17015 0.12931 0.74866 0.14973v0.34711h-0.76227q-0.27224 0-0.47642-0.15654-0.19737-0.15654-0.19737-0.39475v-1.5041h2.1711zm-1.4156-3.1171h0.64657v0.1089h1.0005v0.40155h-2.6339v-0.40155h0.98687zm3.2941 1.2319q-0.24502-0.04084-0.46961-0.04084-0.61254 0-0.61254 0.2246 0 0.19057 0.18376 0.19057 0.25182 0 0.89839-0.37433zm0.06806-1.4429h0.50364v0.31988h0.2246v0.40155h-0.2246v0.53767q0 0.36752-0.40836 0.5717-0.27905 0.13612-0.86436 0.23821 0.27905 0.05445 0.47642 0.10209 0.49003 0.1089 0.54448 0.17696v0.25182q-0.14293-0.07487-0.41517-0.13612-0.29266-0.06125-0.53087-0.06125-0.456 0-0.456 0.21779 0 0.21099 0.2246 0.35391 0.18376 0.1157 0.38114 0.1157 0.42197 0 0.59212-0.1157 0.2314-0.19057 0.456-0.38114v0.29946q0 0.68741-1.0481 0.68741h-1.157q-0.01361-0.29266 0.07487-0.69421 0.08848-0.39475 0.08848-0.40155 0.1157-0.32669 0.33349-0.40155-0.10209-0.01361-0.19737-0.03403-0.09528-0.02042-0.14973-0.09528-0.04764-0.08167-0.09528-0.29266v-0.61254h1.6471v-0.32669h-1.9057v-0.40155h1.9057zm2.9402 3.3281h-0.47642v-1.8716h-1.1162q-0.01361 0.21099-0.01361 0.42878 0 0.61934 0.12251 0.71463 0.17015 0.12931 0.74866 0.14973v0.34711h-0.76227q-0.27224 0-0.47642-0.15654-0.19737-0.15654-0.19737-0.39475v-1.5041h2.1711zm-1.4156-3.1171h0.64657v0.1089h1.0005v0.40155h-2.6339v-0.40155h0.98687zm2.9062 1.5041q0-0.14293 0.09528-0.23821 0.10209-0.10209 0.24502-0.10209 0.13612 0 0.23821 0.10209 0.10209 0.09528 0.10209 0.23821 0 0.14293-0.10209 0.24502-0.10209 0.09528-0.23821 0.09528-0.14293 0-0.24502-0.09528-0.09528-0.10209-0.09528-0.24502zm1.0617-1.9125q0-0.1157 0.07487-0.19057 0.08167-0.08167 0.19057-0.08167 0.1157 0 0.19057 0.08167 0.08167 0.07487 0.08167 0.19057 0 0.1089-0.08167 0.19057-0.07487 0.07487-0.19057 0.07487-0.1089 0-0.19057-0.07487-0.07487-0.08167-0.07487-0.19057zm0.49684 1.2455v2.2528h-0.47642v-2.2528zm-0.80991-0.32669v-0.40155h1.1502v0.40155zm0.96645 0v-0.40155h2.6816v0.40155zm0.74185 0.6806q0.28585-0.25863 0.41517-0.3403 0.2314-0.12931 0.51726-0.12931 0.2314 0 0.49003 0.27224 0.28585 0.29946 0.30627 0.6806 0.02042 0.31988-0.17015 0.74866-0.2246 0.50364-0.66018 0.94603-0.09528 0.09528-0.32669 0.19737-0.19737 0.08848-0.38794 0.12931 0.46961-0.46961 0.46961-0.46961 0.46281-0.52406 0.52406-0.85756 0.02042-0.12931 0.02042-0.25863 0-0.37433-0.16334-0.61254-0.19737-0.28585-0.5649-0.28585-0.23821 0-0.46961 0.14973v1.5245h-0.47642v-2.0486h0.47642zm1.7491-1.0822h2.7973v0.40155h-2.7973zm2.5659 0.86436-0.42197 0.52406q-0.31988-0.12931-0.60573-0.12931-0.27224 0-0.6806 0.12931v0.98006h1.0073q0.20418 0 0.3403-0.16334 0.08848-0.1089 0.25863-0.35391 0.02042 0.66699-0.04084 0.80991-0.02042 0.03403-0.12931 0.07487-0.1089 0.04084-0.25182 0.04084h-1.2999q-0.08167 0-0.23821-0.02042-0.15654-0.01361-0.17015-0.02722-0.10209-0.09528-0.10209-0.31988v-1.545q0.59212-0.18376 1.2319-0.18376 0.62615 0 1.1026 0.18376z" aria-label="saga inc"/></g></svg>
